<svg xmlns="http://www.w3.org/2000/svg" xmlns:xlink="http://www.w3.org/1999/xlink" width="500" zoomAndPan="magnify" viewBox="0 0 375 374.999991" height="500" preserveAspectRatio="xMidYMid meet" version="1.0"><defs><clipPath id="e28f0aea72"><path d="M 176.367188 172.011719 L 198.632812 172.011719 L 198.632812 187.761719 L 176.367188 187.761719 Z M 176.367188 172.011719 " clip-rule="nonzero"/></clipPath></defs><g clip-path="url(#e28f0aea72)"><path fill="#dfdfdf" d="M 178.019531 178.183594 L 193.203125 178.183594 C 193.203125 178.183594 190.003906 174.917969 189.921875 174.808594 C 189.699219 174.519531 189.570312 174.15625 189.570312 173.761719 C 189.570312 173.324219 189.730469 172.925781 189.992188 172.625 L 190.125 172.488281 C 190.417969 172.21875 190.804688 172.050781 191.230469 172.050781 C 191.664062 172.050781 192.0625 172.226562 192.359375 172.511719 C 192.359375 172.511719 198.484375 178.796875 198.515625 178.839844 C 198.734375 179.128906 198.863281 179.488281 198.863281 179.882812 C 198.863281 180.273438 198.734375 180.632812 198.515625 180.921875 C 198.429688 181.039062 192.28125 187.332031 192.28125 187.332031 C 191.996094 187.570312 191.632812 187.710938 191.238281 187.710938 C 190.320312 187.710938 189.578125 186.949219 189.578125 186.003906 C 189.578125 185.589844 189.71875 185.210938 189.957031 184.917969 L 193.203125 181.582031 L 178.019531 181.582031 C 177.105469 181.582031 176.367188 180.820312 176.367188 179.882812 C 176.367188 178.945312 177.105469 178.183594 178.019531 178.183594 " fill-opacity="1" fill-rule="nonzero"/></g></svg>