<svg xmlns="http://www.w3.org/2000/svg" xmlns:xlink="http://www.w3.org/1999/xlink" width="500" zoomAndPan="magnify" viewBox="0 0 375 374.999991" height="500" preserveAspectRatio="xMidYMid meet" version="1.0"><defs><clipPath id="e2ef75a902"><path d="M 178.292969 178.292969 L 197.042969 178.292969 L 197.042969 197.042969 L 178.292969 197.042969 Z M 178.292969 178.292969 " clip-rule="nonzero"/></clipPath></defs><g clip-path="url(#e2ef75a902)"><path fill="#f87a2c" d="M 187.667969 197.042969 C 192.847656 197.042969 197.042969 192.847656 197.042969 187.667969 C 197.042969 182.492188 192.847656 178.292969 187.667969 178.292969 C 182.492188 178.292969 178.292969 182.492188 178.292969 187.667969 C 178.292969 192.847656 182.492188 197.042969 187.667969 197.042969 Z M 183.121094 187.667969 C 183.121094 184.90625 185.363281 182.667969 188.121094 182.667969 C 188.675781 182.667969 189.207031 182.757812 189.703125 182.921875 C 189.867188 182.976562 189.984375 183.121094 190.011719 183.289062 C 190.035156 183.460938 189.960938 183.628906 189.820312 183.730469 C 188.929688 184.34375 188.351562 185.371094 188.351562 186.53125 C 188.351562 188.414062 189.875 189.941406 191.757812 189.941406 C 191.933594 189.941406 192.089844 190.039062 192.167969 190.191406 C 192.242188 190.347656 192.226562 190.53125 192.125 190.667969 C 191.210938 191.882812 189.757812 192.667969 188.121094 192.667969 C 185.363281 192.667969 183.121094 190.429688 183.121094 187.667969 Z M 183.121094 187.667969 " fill-opacity="1" fill-rule="evenodd"/></g></svg>